<svg preserveAspectRatio="none" viewBox="0 0 390 358" fill="none" xmlns="http://www.w3.org/2000/svg">
<path d="M390 75.2129L272.956 43.4538C249.404 37.0631 224.328 39.5052 202.452 50.3202L159.284 71.6611C134.341 83.9922 105.388 85.3733 79.3839 75.4725L15.3424 51.0887C10.3835 49.2006 5.21329 48.0695 0 47.6972V309.004C1.65382 309.106 3.33193 309.112 5.02873 309.019C11.2354 308.677 17.2925 306.983 22.7764 304.057L30.5122 299.928C54.5585 287.095 83.3974 286.993 107.534 299.655L132.122 312.555C158.605 326.449 189.916 327.761 217.469 316.13L272.46 292.918C293.18 284.171 316.245 282.665 337.927 288.643L374.801 298.809C379.812 300.19 384.902 301.058 390 301.425V75.2129Z" fill="#15616D"/>
<path d="M390 75.2129L272.956 43.4538C249.404 37.0631 224.328 39.5052 202.452 50.3202L159.284 71.6611C134.341 83.9922 105.388 85.3733 79.3839 75.4725L15.3424 51.0887C10.3835 49.2006 5.21329 48.0695 0 47.6972V309.004C1.65382 309.106 3.33193 309.112 5.02873 309.019C11.2354 308.677 17.2925 306.983 22.7764 304.057L30.5122 299.928C54.5585 287.095 83.3974 286.993 107.534 299.655L132.122 312.555C158.605 326.449 189.916 327.761 217.469 316.13L272.46 292.918C293.18 284.171 316.245 282.665 337.927 288.643L374.801 298.809C379.812 300.19 384.902 301.058 390 301.425V75.2129Z" fill="#15616D"/>
<path d="M390 75.2129L272.956 43.4538C249.404 37.0631 224.328 39.5052 202.452 50.3202L159.284 71.6611C134.341 83.9922 105.388 85.3733 79.3839 75.4725L15.3424 51.0887C10.3835 49.2006 5.21329 48.0695 0 47.6972V309.004C1.65382 309.106 3.33193 309.112 5.02873 309.019C11.2354 308.677 17.2925 306.983 22.7764 304.057L30.5122 299.928C54.5585 287.095 83.3974 286.993 107.534 299.655L132.122 312.555C158.605 326.449 189.916 327.761 217.469 316.13L272.46 292.918C293.18 284.171 316.245 282.665 337.927 288.643L374.801 298.809C379.812 300.19 384.902 301.058 390 301.425V75.2129Z" fill="#15616D"/>
<path d="M390 301.425C384.902 301.058 379.812 300.19 374.801 298.809L337.927 288.643C316.245 282.665 293.18 284.171 272.46 292.918L217.469 316.13C189.916 327.761 158.605 326.449 132.122 312.555L107.534 299.655C83.3974 286.993 54.5585 287.095 30.5122 299.928L22.7764 304.057C17.2925 306.983 11.2354 308.677 5.02873 309.019C3.33193 309.112 1.65382 309.106 0 309.004V343.004C1.65382 343.106 3.33193 343.113 5.02873 343.019C11.2354 342.677 17.2925 340.983 22.7764 338.057L30.5122 333.928C54.5585 321.095 83.3974 320.993 107.534 333.655L132.122 346.555C158.605 360.449 189.916 361.761 217.469 350.13L272.46 326.918C293.18 318.171 316.245 316.665 337.927 322.643L374.801 332.809C379.812 334.19 384.902 335.058 390 335.425V301.425Z" fill="#15616D" fill-opacity="0.6"/>
<path d="M390 33.8923L277.956 3.48992C254.404 -2.90078 229.328 -0.458642 207.452 10.3563L164.284 31.6973C139.341 44.0283 110.388 45.4094 84.3839 35.5086L20.3424 11.1249C13.8006 8.63409 6.89112 7.46068 0 7.60868V47.6972C5.21329 48.0695 10.3835 49.2006 15.3424 51.0887L79.3839 75.4725C105.388 85.3733 134.341 83.9922 159.284 71.6611L202.452 50.3202C224.328 39.5052 249.404 37.0631 272.956 43.4538L390 75.2129V33.8923Z" fill="#15616D" fill-opacity="0.6"/>
</svg>
