<svg preserveAspectRatio="none" viewBox="0 0 390 412" fill="none" xmlns="http://www.w3.org/2000/svg">
<path d="M390 387.361C389.217 386.937 388.437 386.49 387.66 386.018L338.925 356.438C324.883 347.915 307.55 346.833 292.557 353.544L268.987 364.092C253.97 370.813 236.608 369.717 222.556 361.159L192.431 342.814C176.761 333.272 157.124 333.077 141.269 342.308L82.5077 376.516C68.6813 384.565 51.838 385.512 37.1968 379.063L0 362.678V387.198L40.6592 406.671C55.8505 413.946 73.684 413.084 88.1027 404.377L144.128 370.545C159.237 361.421 178.037 360.939 193.594 369.277L224.329 385.75C237.425 392.768 252.964 393.599 266.734 388.017L295.516 376.348C310.278 370.364 327.008 371.771 340.563 380.138L380.849 405.004C383.84 406.85 386.902 408.337 390 409.487V387.361Z" fill="#661637" fill-opacity="0.6"/>
<path d="M390 52.8473L382.284 63.8855C369.156 82.6651 344.944 90.1183 323.528 81.9723L291.607 69.8304C271.995 62.3707 249.812 67.9492 236.062 83.7986L221.869 100.159C203.142 121.745 170.164 123.272 149.522 103.509L112.299 67.8691C100.068 56.1584 81.1736 54.9784 67.5807 65.0764L61.5004 69.5934C48.3343 79.3745 29.6076 75.7048 21.1067 61.678L11.2346 45.3884C8.61922 41.073 4.42376 38.5927 0 37.9775V362.678L37.1968 379.063C51.838 385.512 68.6813 384.565 82.5077 376.516L141.269 342.308C157.124 333.077 176.761 333.272 192.431 342.814L222.556 361.159C236.608 369.717 253.97 370.813 268.987 364.092L292.557 353.544C307.55 346.833 324.883 347.915 338.925 356.438L387.66 386.018C388.437 386.49 389.217 386.937 390 387.361V52.8473Z" fill="#661637"/>
<path d="M390 14.6577L382.149 25.8886C369.022 44.6682 344.809 52.1215 323.393 43.9754L291.472 31.8335C271.86 24.3738 249.677 29.9523 235.928 45.8017L221.734 62.162C203.007 83.7486 170.029 85.2756 149.387 65.5119L112.164 29.8722C99.9335 18.1615 81.0388 16.9816 67.4459 27.0796L61.3657 31.5965C48.1995 41.3776 29.4728 37.708 20.972 23.6811L11.0998 7.39156C8.51103 3.11995 4.37409 0.646417 0 0V37.9775C4.42376 38.5927 8.61922 41.073 11.2346 45.3884L21.1067 61.678C29.6076 75.7048 48.3343 79.3745 61.5004 69.5934L67.5807 65.0764C81.1736 54.9784 100.068 56.1584 112.299 67.8691L149.522 103.509C170.164 123.272 203.142 121.745 221.869 100.159L236.062 83.7986C249.812 67.9492 271.995 62.3707 291.607 69.8304L323.528 81.9723C344.944 90.1183 369.156 82.6651 382.284 63.8855L390 52.8473V14.6577Z" fill="#661637" fill-opacity="0.6"/>
</svg>
