<svg preserveAspectRatio="none" viewBox="0 0 390 373" fill="none" xmlns="http://www.w3.org/2000/svg">
<path d="M390 53.4035C386.579 52.9352 383.172 52.2383 379.801 51.3089L342.927 41.1427C321.245 35.1649 298.18 36.6709 277.46 45.4175L222.469 68.6301C194.916 80.2604 163.605 78.9488 137.122 65.0549L112.534 52.1553C88.3974 39.4924 59.5585 39.5946 35.5122 52.428L27.7764 56.5566C22.2925 59.4834 16.2354 61.177 10.0287 61.5189C6.59376 61.7082 3.23544 61.4868 0 60.8986V260.72C4.25259 261.44 8.24862 263.895 10.7728 268.06L20.645 284.35C29.1458 298.376 47.8725 302.046 61.0387 292.265L67.1189 287.748C80.7118 277.65 99.6064 278.83 111.837 290.541L149.06 326.18C169.702 345.944 202.68 344.417 221.407 322.831L235.601 306.47C249.35 290.621 271.533 285.042 291.145 292.502L323.066 304.644C344.482 312.79 368.695 305.337 381.822 286.557L390 274.858V53.4035Z" fill="#E77423"/>
<path d="M390 274.858L381.822 286.557C368.695 305.337 344.482 312.79 323.066 304.644L291.145 292.502C271.533 285.042 249.35 290.621 235.601 306.47L221.407 322.831C202.68 344.417 169.702 345.944 149.06 326.18L111.837 290.541C99.6064 278.83 80.7118 277.65 67.1189 287.748L61.0387 292.265C47.8725 302.046 29.1458 298.376 20.645 284.35L10.7728 268.06C8.24862 263.895 4.25259 261.44 0 260.72V293.599C4.24365 294.129 8.29276 296.471 10.8129 300.629L21.1979 317.765C29.4014 331.301 47.473 334.842 60.1786 325.403L67.1175 320.249C80.7104 310.151 99.605 311.331 111.836 323.041L149.059 358.681C169.7 378.445 202.679 376.918 221.406 355.331L235.599 338.971C249.349 323.121 271.532 317.543 291.143 325.003L323.064 337.144C344.481 345.291 368.693 337.837 381.821 319.058L390 307.357V274.858Z" fill="#E77423" fill-opacity="0.6"/>
<path d="M390 15.7931C386.734 15.3262 383.482 14.6506 380.262 13.763L343.388 3.59681C321.706 -2.38104 298.641 -0.874993 277.921 7.87162L222.93 31.0842C195.377 42.7145 164.066 41.4029 137.583 27.509L112.995 14.6094C88.8583 1.94654 60.0194 2.04865 35.9732 14.8821L28.2374 19.0107C22.7534 21.9375 16.6963 23.6311 10.4897 23.973C6.89127 24.1713 3.377 23.9189 0 23.2663V60.8986C3.23544 61.4868 6.59376 61.7082 10.0287 61.5189C16.2354 61.177 22.2925 59.4834 27.7764 56.5566L35.5122 52.428C59.5585 39.5946 88.3974 39.4924 112.534 52.1553L137.122 65.0549C163.605 78.9488 194.916 80.2604 222.469 68.6301L277.46 45.4175C298.18 36.6709 321.245 35.1649 342.927 41.1427L379.801 51.3089C383.172 52.2383 386.579 52.9352 390 53.4035V15.7931Z" fill="#E77423" fill-opacity="0.6"/>
</svg>
