<?xml version="1.0" standalone="no"?>
<!DOCTYPE svg PUBLIC "-//W3C//DTD SVG 20010904//EN"
 "http://www.w3.org/TR/2001/REC-SVG-20010904/DTD/svg10.dtd">
<svg version="1.0" xmlns="http://www.w3.org/2000/svg"
 width="512.000000pt" height="512.000000pt" viewBox="0 0 512.000000 512.000000"
 preserveAspectRatio="xMidYMid meet">

<g transform="translate(0.000000,512.000000) scale(0.100000,-0.100000)"
fill="currentColor" stroke="none">
<path d="M2475 5101 c-56 -27 -988 -962 -1010 -1013 -20 -50 -19 -134 4 -183
10 -22 42 -62 72 -89 84 -75 176 -115 317 -136 84 -12 122 -29 145 -63 68
-105 26 -269 -102 -398 -129 -128 -293 -170 -398 -102 -34 23 -51 61 -63 145
-21 141 -61 233 -136 317 -27 30 -67 62 -89 72 -49 23 -133 24 -183 4 -24 -10
-122 -101 -284 -263 -231 -230 -248 -249 -248 -283 0 -59 56 -101 112 -84 13
4 129 113 259 241 130 129 241 234 247 234 23 0 79 -60 106 -114 19 -37 32
-86 41 -151 16 -110 40 -167 97 -225 116 -120 319 -133 513 -32 95 50 209 163
263 261 105 192 94 401 -28 519 -58 57 -115 81 -225 97 -65 9 -114 22 -151 41
-55 28 -114 83 -114 107 0 17 922 937 940 937 8 0 222 -207 475 -459 311 -310
475 -466 505 -482 93 -48 202 -26 282 58 75 79 121 181 142 324 16 102 33 131
92 160 141 68 377 -56 466 -246 42 -90 49 -176 19 -238 -29 -60 -58 -77 -160
-93 -143 -21 -245 -67 -324 -142 -84 -80 -106 -189 -58 -282 16 -30 172 -194
482 -505 252 -253 459 -467 459 -474 0 -8 -52 -67 -115 -132 -107 -109 -115
-120 -115 -156 0 -51 35 -87 86 -87 31 0 47 13 160 125 69 68 132 136 140 151
22 41 28 108 14 158 -11 41 -57 90 -486 521 -372 373 -474 480 -474 500 0 61
122 131 260 149 189 25 293 120 323 294 9 51 8 79 -5 144 -50 251 -260 457
-509 499 -80 14 -96 14 -161 -1 -162 -37 -243 -133 -268 -316 -18 -138 -88
-260 -149 -260 -20 0 -125 100 -496 470 -322 321 -482 474 -507 485 -50 20
-114 19 -163 -4z"/>
<path d="M158 2803 c-75 -76 -134 -143 -143 -165 -19 -48 -19 -108 0 -156 11
-25 164 -185 485 -507 370 -371 470 -476 470 -496 0 -61 -122 -131 -260 -149
-182 -24 -278 -106 -315 -265 -28 -118 2 -259 81 -382 187 -292 565 -392 757
-200 55 55 84 126 96 230 6 48 20 108 31 135 27 61 86 122 119 122 20 0 128
-103 500 -474 498 -497 498 -496 581 -496 84 0 82 -1 589 503 325 324 489 495
502 522 24 52 24 137 0 190 -10 22 -42 62 -72 89 -84 75 -180 117 -317 136
-117 16 -151 43 -172 134 -22 99 27 225 129 327 102 102 228 151 327 129 91
-21 118 -55 134 -172 19 -137 61 -233 136 -317 27 -30 67 -62 89 -72 49 -23
133 -24 183 -4 51 21 519 489 527 527 12 53 -28 97 -89 98 -37 0 -47 -9 -276
-235 -255 -253 -247 -248 -301 -198 -46 42 -80 124 -94 228 -16 110 -40 167
-97 225 -56 59 -131 91 -227 97 -98 7 -162 -7 -271 -60 -120 -58 -229 -167
-287 -287 -53 -109 -67 -173 -60 -271 6 -96 38 -171 97 -227 58 -57 115 -81
225 -97 135 -19 235 -73 259 -139 6 -16 -78 -104 -456 -483 -254 -255 -469
-463 -478 -463 -8 0 -222 207 -475 459 -310 309 -475 466 -505 482 -59 31
-148 31 -206 1 -74 -38 -166 -159 -196 -257 -5 -16 -15 -71 -22 -121 -16 -107
-32 -135 -92 -165 -142 -68 -377 56 -467 248 -42 90 -48 174 -18 237 29 59 58
76 160 92 143 21 245 67 324 142 84 80 106 189 58 282 -16 30 -172 194 -482
505 -252 253 -459 467 -459 475 0 8 47 62 104 120 58 58 110 119 116 134 21
56 -20 116 -79 116 -33 0 -48 -11 -163 -127z"/>
</g>
</svg>
