<svg preserveAspectRatio="none" viewBox="0 0 390 380" fill="none" xmlns="http://www.w3.org/2000/svg">
<path d="M390 66.7291L374.443 52.3519C354.16 33.6067 323.773 30.9344 300.53 45.8519C280.687 58.5866 255.262 58.6661 235.34 46.0556L231.374 43.5448C209.163 29.4851 180.837 29.4851 158.626 43.5448L154.66 46.0556C134.738 58.6661 109.313 58.5866 89.4703 45.8519C66.2269 30.9344 35.8398 33.6067 15.5568 52.3519L0 66.7291V304.996C4.19287 305.532 8.33655 306.564 12.3423 308.089L76.3839 332.473C102.388 342.373 131.341 340.992 156.284 328.661L199.452 307.32C221.328 296.505 246.404 294.063 269.956 300.454L390 333.027V66.7291Z" fill="#001524"/>
<path d="M390 33.7291L374.443 19.3519C354.16 0.606659 323.773 -2.06558 300.53 12.8519C280.687 25.5866 255.262 25.6661 235.34 13.0556L231.374 10.5448C209.163 -3.51492 180.837 -3.51492 158.626 10.5448L154.66 13.0556C134.738 25.6661 109.313 25.5866 89.4703 12.8519C66.2269 -2.06558 35.8398 0.606659 15.5567 19.3519L0 33.7291V183H390V33.7291Z" fill="#001524" fill-opacity="0.6"/>
<path d="M390 203.786L356.731 211.227C340.075 214.952 322.743 214.352 306.384 209.484L187.65 174.153C178.394 171.399 168.787 170 159.13 170H75.5839C56.4677 170 37.7519 175.479 21.6538 185.789L0 199.656V344.996C4.19287 345.532 8.33655 346.564 12.3423 348.089L76.3839 372.473C102.388 382.373 131.341 380.992 156.284 368.661L199.452 347.32C221.328 336.505 246.404 334.063 269.956 340.454L390 373.027V203.786Z" fill="#001524" fill-opacity="0.6"/>
</svg>
