<?xml version="1.0" standalone="no"?>
<!DOCTYPE svg PUBLIC "-//W3C//DTD SVG 20010904//EN"
 "http://www.w3.org/TR/2001/REC-SVG-20010904/DTD/svg10.dtd">
<svg version="1.0" xmlns="http://www.w3.org/2000/svg"
 width="512.000000pt" height="512.000000pt" viewBox="0 0 512.000000 512.000000"
 preserveAspectRatio="xMidYMid meet">

<g transform="translate(0.000000,512.000000) scale(0.100000,-0.100000)"
fill="currentColor" stroke="none">
<path d="M760 5104 c-100 -36 -170 -108 -204 -207 -11 -34 -16 -84 -16 -171
l0 -123 -107 -5 c-204 -10 -334 -96 -405 -268 l-23 -55 0 -1975 0 -1975 23
-55 c46 -113 129 -196 242 -242 l55 -23 2235 0 2235 0 55 23 c113 46 196 129
242 242 l23 55 0 1975 0 1975 -23 55 c-70 172 -201 258 -403 268 l-107 4 -4
142 c-5 162 -20 209 -93 281 -66 66 -125 90 -225 89 -72 0 -93 -4 -137 -27
-69 -36 -120 -88 -152 -156 -23 -50 -26 -70 -29 -193 l-4 -138 -528 0 -528 0
-4 143 c-3 126 -6 147 -27 192 -32 63 -92 124 -156 155 -41 20 -65 25 -135 24
-72 0 -93 -4 -135 -26 -67 -35 -122 -92 -154 -158 -22 -49 -26 -70 -29 -192
l-4 -138 -528 0 -528 0 -4 138 c-3 123 -6 143 -29 193 -52 111 -150 178 -273
185 -50 3 -84 0 -116 -12z m184 -223 l31 -31 0 -330 0 -330 -33 -32 c-28 -28
-39 -33 -82 -33 -43 0 -54 5 -82 33 l-33 32 0 329 0 329 25 27 c33 36 57 46
104 41 27 -3 49 -14 70 -35z m1670 24 c65 -31 66 -39 66 -385 0 -276 -2 -315
-17 -341 -18 -31 -67 -59 -103 -59 -34 0 -79 28 -100 63 -19 30 -20 52 -20
335 0 335 2 345 63 382 39 24 68 25 111 5z m1730 -24 l31 -31 0 -330 0 -330
-33 -32 c-28 -28 -39 -33 -82 -33 -43 0 -54 5 -82 33 l-33 32 0 329 0 329 25
27 c33 36 57 46 104 41 27 -3 49 -14 70 -35z m-3802 -603 c5 -142 23 -193 93
-263 65 -65 125 -89 225 -89 73 0 92 4 137 27 69 36 120 88 152 156 22 48 26
73 29 174 l4 117 528 0 528 0 4 -117 c5 -137 27 -200 94 -267 63 -63 134 -91
229 -91 95 1 156 26 221 90 70 71 88 121 92 263 l4 122 528 0 528 0 4 -117 c3
-101 7 -126 29 -174 32 -68 83 -120 152 -156 45 -23 64 -27 137 -27 72 0 93 4
136 26 76 40 107 70 144 140 32 60 34 69 38 186 l4 124 93 -4 c81 -3 97 -6
140 -33 36 -22 57 -45 77 -84 l28 -53 0 -414 0 -414 -965 0 c-1049 0 -1007 2
-1033 -55 -15 -33 -15 -57 0 -90 26 -57 -16 -55 1033 -55 l965 0 0 -1212 c0
-1155 -1 -1215 -19 -1253 -23 -51 -65 -93 -116 -116 -38 -18 -127 -19 -2226
-19 l-2187 0 -53 28 c-39 20 -62 41 -84 77 l-30 48 -3 1224 -2 1223 965 0
c1049 0 1007 -2 1033 55 15 33 15 57 0 90 -26 57 16 55 -1033 55 l-966 0 3
423 3 424 30 48 c45 74 111 105 220 105 l83 0 4 -122z m2018 -3873 l2235 0 62
26 63 27 0 -42 c-1 -80 -56 -161 -135 -197 -38 -18 -127 -19 -2226 -19 l-2187
0 -53 28 c-69 36 -110 99 -117 177 l-4 54 63 -27 64 -27 2235 0z"/>
<path d="M2511 3386 c-87 -48 -50 -186 49 -186 51 0 100 49 100 99 0 75 -83
124 -149 87z"/>
<path d="M2470 2839 c-25 -11 -56 -30 -69 -42 -13 -12 -67 -110 -121 -218
l-98 -196 -199 -27 c-230 -32 -285 -51 -331 -115 -43 -59 -57 -127 -42 -193
12 -49 24 -64 176 -218 l164 -166 -36 -208 c-42 -243 -40 -282 21 -354 52 -60
111 -85 188 -80 55 4 82 14 247 101 101 53 188 97 192 97 4 0 89 -44 190 -97
158 -84 191 -98 241 -101 78 -6 136 17 185 74 70 78 72 105 29 354 l-36 215
159 157 c148 146 161 162 176 214 27 92 0 183 -71 241 -48 40 -77 48 -303 80
l-194 28 -99 196 c-74 149 -107 204 -134 226 -67 55 -157 68 -235 32z m215
-393 c73 -152 111 -219 129 -232 18 -11 103 -28 254 -50 125 -19 230 -34 233
-34 4 0 10 -8 13 -17 5 -13 -37 -61 -167 -192 -96 -97 -177 -184 -180 -193 -3
-10 12 -122 34 -250 21 -128 37 -239 34 -245 -2 -7 -12 -13 -21 -13 -10 0
-108 48 -218 106 -148 78 -210 106 -236 106 -25 0 -94 -32 -235 -106 -196
-103 -228 -116 -240 -96 -3 5 12 115 35 244 29 171 38 241 31 259 -5 14 -87
100 -180 193 -94 92 -171 170 -171 173 1 25 37 34 247 64 160 23 239 39 258
51 20 13 56 78 132 232 84 171 109 214 124 214 16 0 41 -42 124 -214z"/>
</g>
</svg>
