<?xml version="1.0" standalone="no"?>
<!DOCTYPE svg PUBLIC "-//W3C//DTD SVG 20010904//EN"
 "http://www.w3.org/TR/2001/REC-SVG-20010904/DTD/svg10.dtd">
<svg version="1.0" xmlns="http://www.w3.org/2000/svg"
 width="512.000000pt" height="512.000000pt" viewBox="0 0 512.000000 512.000000"
 preserveAspectRatio="xMidYMid meet">

<g transform="translate(0.000000,512.000000) scale(0.100000,-0.100000)"
fill="currentColor" stroke="none">
<path d="M3658 4985 c-16 -9 -47 -51 -78 -105 -66 -116 -123 -173 -235 -239
-109 -64 -125 -82 -125 -141 0 -59 16 -77 125 -141 112 -66 169 -123 235 -239
53 -93 84 -120 135 -120 52 0 82 27 132 117 62 111 126 176 238 242 109 64
125 82 125 141 0 59 -16 77 -125 141 -111 65 -176 131 -238 243 -50 90 -81
116 -134 116 -15 -1 -40 -7 -55 -15z m196 -360 c34 -33 86 -73 114 -90 28 -16
52 -32 52 -35 -1 -3 -25 -20 -54 -37 -81 -49 -151 -117 -204 -198 l-48 -73
-34 56 c-42 71 -149 178 -218 217 -28 17 -52 32 -52 35 0 3 24 19 52 35 69 39
176 146 218 217 l34 57 39 -62 c22 -34 67 -89 101 -122z"/>
<path d="M348 4835 c-14 -8 -43 -45 -63 -82 -48 -84 -104 -140 -189 -188 -67
-37 -96 -72 -96 -115 0 -43 29 -78 96 -115 85 -48 141 -104 189 -189 37 -67
72 -96 115 -96 43 0 78 29 115 96 48 85 104 141 189 189 130 73 130 157 0 230
-85 48 -141 104 -189 189 -50 91 -102 116 -167 81z m95 -245 c20 -27 61 -68
90 -91 28 -23 52 -45 52 -49 0 -4 -24 -26 -52 -49 -29 -23 -70 -64 -90 -91
-21 -28 -40 -50 -43 -50 -3 0 -22 22 -43 50 -20 27 -61 68 -90 91 -28 23 -52
45 -52 49 0 4 24 26 52 49 29 23 70 64 90 91 21 28 40 50 43 50 3 0 22 -22 43
-50z"/>
<path d="M1825 4449 c-243 -13 -514 -87 -733 -198 -134 -69 -152 -89 -127
-148 24 -57 57 -57 166 1 169 89 363 152 550 180 51 8 96 12 98 10 2 -2 -25
-17 -60 -32 -179 -80 -453 -252 -626 -391 -343 -275 -691 -777 -844 -1216 -59
-171 -58 -168 -58 -104 -3 247 70 545 194 794 83 166 170 287 317 441 125 131
135 150 99 195 -13 16 -29 23 -55 23 -33 0 -46 -10 -132 -94 -52 -52 -119
-124 -148 -160 -224 -273 -376 -641 -415 -1002 -54 -493 102 -1015 419 -1403
84 -103 263 -270 371 -347 123 -88 334 -196 484 -248 134 -46 334 -89 426 -93
53 -2 63 1 80 22 26 31 24 73 -3 99 -17 15 -46 24 -108 32 -108 14 -273 54
-370 90 -189 70 -367 169 -377 208 -10 40 18 383 32 400 2 2 61 -32 132 -74
525 -318 1154 -436 1733 -324 52 10 96 17 98 15 5 -4 -166 -109 -234 -143
-162 -81 -353 -141 -534 -167 -89 -13 -108 -19 -127 -41 -29 -32 -29 -56 1
-91 21 -24 30 -27 74 -25 160 7 420 81 623 179 l136 65 50 -36 c113 -81 247
-120 413 -120 188 0 296 42 502 193 120 88 174 108 256 96 82 -12 112 -32 246
-163 80 -77 157 -142 196 -165 81 -47 199 -85 290 -93 62 -6 75 -4 124 20 143
70 180 235 79 347 -46 51 -73 64 -153 79 -35 6 -78 19 -95 27 -16 9 -86 70
-155 137 -178 173 -261 221 -442 252 -216 38 -401 -13 -603 -167 -131 -99
-198 -127 -281 -114 l-45 6 62 67 c267 285 446 685 489 1093 65 622 -198 1260
-685 1659 -296 242 -705 407 -1055 426 -52 3 -108 6 -125 7 -16 2 -84 0 -150
-4z m461 -179 c111 -23 137 -30 242 -67 l73 -26 -163 -53 c-292 -96 -620 -276
-877 -480 -117 -94 -392 -368 -485 -484 -71 -89 -233 -330 -279 -414 -47 -85
-29 -146 43 -146 43 0 50 7 110 110 388 668 1067 1184 1760 1334 l115 25 85
-56 c84 -55 211 -155 206 -161 -2 -1 -57 -15 -122 -31 -371 -91 -751 -284
-1079 -547 -138 -111 -357 -329 -456 -454 -358 -452 -586 -991 -629 -1487 -6
-64 -12 -119 -15 -121 -2 -2 -49 40 -105 95 l-100 100 0 134 c1 226 36 431
116 676 46 138 47 143 30 168 -35 53 -101 52 -129 -2 -55 -106 -137 -438 -158
-642 -11 -101 -14 -111 -27 -95 -27 37 -110 211 -145 304 -33 91 -34 98 -25
170 60 491 310 1001 701 1432 248 274 676 544 1107 699 58 21 106 38 106 38 1
1 46 -8 100 -19z m1020 -613 c59 -73 119 -160 163 -238 l31 -56 -37 -7 c-21
-3 -94 -9 -163 -12 -72 -4 -136 -12 -152 -20 -54 -28 -42 -115 19 -130 32 -8
245 2 332 17 51 8 66 7 72 -3 14 -21 78 -231 81 -262 3 -27 0 -30 -62 -47
-505 -146 -1147 -84 -1622 157 l-49 25 46 39 c62 54 187 148 257 195 40 26 64
36 80 32 13 -3 82 -24 153 -46 72 -23 188 -52 258 -66 144 -28 170 -24 195 28
11 22 11 32 0 54 -15 32 -48 45 -173 67 -49 9 -132 28 -183 43 l-93 26 33 20
c78 47 337 150 462 184 75 20 265 61 286 62 8 0 38 -27 66 -62z m-1453 -711
c68 -40 264 -121 387 -160 142 -45 366 -91 524 -107 256 -25 591 1 832 65 49
14 90 23 92 21 2 -2 6 -70 9 -152 l6 -149 -79 -31 c-300 -118 -530 -158 -874
-150 -239 5 -354 21 -571 81 -198 54 -454 164 -611 262 l-48 30 63 76 c71 88
208 235 220 237 5 0 27 -10 50 -23z m-348 -456 c284 -174 648 -299 1005 -346
158 -20 525 -15 670 10 129 23 311 69 411 106 45 16 84 28 86 26 6 -6 -27
-158 -40 -186 -17 -34 -276 -163 -427 -213 -256 -83 -463 -112 -759 -104 -295
7 -528 52 -786 152 -117 45 -311 140 -398 195 l-47 30 31 63 c54 106 174 307
184 307 3 0 34 -18 70 -40z m-237 -534 c286 -163 615 -271 952 -312 167 -20
522 -15 670 10 201 35 423 103 613 190 31 14 57 23 57 21 0 -3 -22 -49 -49
-103 -54 -107 -132 -228 -207 -322 -44 -54 -58 -63 -129 -91 -214 -82 -486
-129 -750 -129 -374 0 -731 88 -1070 264 -95 49 -251 144 -308 187 -8 6 31
137 80 272 15 42 28 77 28 77 1 0 52 -29 113 -64z m2992 -642 c108 -31 169
-73 301 -204 140 -139 189 -171 299 -194 80 -16 110 -38 110 -82 0 -29 -30
-61 -64 -70 -29 -7 -123 11 -190 37 -77 31 -133 74 -251 194 -128 129 -174
160 -276 181 -151 32 -249 3 -419 -125 -52 -39 -122 -85 -155 -101 -156 -78
-356 -75 -517 6 -27 14 -48 28 -48 33 0 4 26 28 58 53 l57 44 55 -19 c39 -15
82 -20 150 -21 87 -1 101 2 160 30 36 17 108 63 160 103 167 126 274 165 430
156 47 -2 110 -12 140 -21z"/>
<path d="M4568 3889 c-10 -5 -42 -47 -72 -92 -43 -65 -66 -89 -111 -117 -93
-57 -115 -82 -115 -130 0 -48 22 -73 115 -130 45 -28 68 -52 111 -117 57 -87
76 -103 119 -103 43 0 63 17 119 103 43 67 64 89 111 117 90 54 115 81 115
127 0 50 -18 75 -83 112 -70 41 -101 71 -152 152 -24 37 -53 73 -64 78 -25 14
-71 14 -93 0z m157 -312 c19 -12 35 -24 35 -27 0 -3 -16 -15 -35 -27 -19 -13
-52 -45 -72 -71 l-38 -48 -38 48 c-21 27 -53 58 -72 71 -19 12 -35 24 -35 27
0 3 16 15 35 27 19 13 52 45 72 71 l38 48 38 -48 c21 -27 53 -58 72 -71z"/>
<path d="M348 905 c-14 -8 -43 -45 -63 -82 -48 -84 -104 -140 -189 -188 -130
-73 -130 -157 0 -230 85 -48 141 -104 189 -189 73 -130 157 -130 230 0 48 85
104 141 189 189 130 73 130 157 0 230 -85 48 -141 104 -189 189 -50 91 -102
116 -167 81z m95 -245 c20 -27 61 -68 90 -91 28 -23 52 -45 52 -49 0 -4 -24
-26 -52 -49 -29 -23 -70 -64 -90 -91 -21 -28 -40 -50 -43 -50 -3 0 -22 22 -43
50 -20 27 -61 68 -90 91 -28 23 -52 45 -52 49 0 4 24 26 52 49 29 23 70 64 90
91 21 28 40 50 43 50 3 0 22 -22 43 -50z"/>
</g>
</svg>
